<svg width="174" height="37" viewBox="0 0 174 37" fill="none" xmlns="http://www.w3.org/2000/svg">
<path d="M60 23.999L59.001 35.9863V35.998L47.001 36.9971L52.7646 32.1934L0 0L60 23.999ZM25.0938 17.75L44.3408 29.4941L0 16L25.0938 17.75Z" fill="white"/>
<g clip-path="url(#clip0_120_13)">
<path d="M89.0362 25.465L89.8458 26.0493C89.3574 27.1142 88.792 28.1011 88.1494 29.01C87.5068 29.8931 86.6971 30.5944 85.7205 31.1137C84.7438 31.6332 83.51 31.8928 82.0193 31.8928C80.3743 31.8928 78.9478 31.5163 77.7398 30.7631C76.5574 30.01 75.6321 28.9452 74.9639 27.5686C74.3213 26.1923 74 24.569 74 22.6991C74 20.6733 74.347 18.9074 75.041 17.401C75.7349 15.8947 76.7502 14.726 78.0867 13.895C79.449 13.0379 81.1068 12.6094 83.0602 12.6094C85.0137 12.6094 86.5429 13.0119 87.6482 13.817C88.7534 14.6221 89.3061 15.609 89.3061 16.7777C89.3061 17.427 89.1261 17.9205 88.7663 18.258C88.4064 18.5957 87.9309 18.7645 87.3398 18.7645C86.7229 18.7645 86.2474 18.6086 85.9132 18.297C85.6048 17.9853 85.3606 17.6088 85.1807 17.1673C85.0008 16.6998 84.8209 16.2453 84.641 15.8038C84.461 15.3363 84.1912 14.9468 83.8313 14.6351C83.4972 14.3235 82.9831 14.1677 82.2892 14.1677C80.8498 14.1677 79.7446 14.739 78.9735 15.8817C78.2281 17.0245 77.8554 18.6866 77.8554 20.8681C77.8554 23.1796 78.2924 25.0495 79.1663 26.4779C80.0402 27.8803 81.4795 28.5815 83.4843 28.5815C84.7695 28.5815 85.8104 28.3349 86.6073 27.8413C87.404 27.322 88.2136 26.5298 89.0362 25.465ZM103.492 31.5033H93.082V30.2566C93.9302 30.2566 94.547 30.1918 94.9326 30.0619C95.3438 29.906 95.6008 29.6333 95.7036 29.2438C95.8321 28.8542 95.8964 28.2959 95.8964 27.5686V17.2452C95.8964 16.544 95.8193 16.0116 95.6651 15.648C95.5365 15.2844 95.1381 15.1026 94.4699 15.1026C94.0844 15.1026 93.7887 15.1156 93.5832 15.1416C93.3775 15.1675 93.2747 15.1805 93.2747 15.1805V13.895L98.441 12.7263H99.7518V16.7387H99.9061C100.574 15.8038 101.153 15.0247 101.641 14.4014C102.129 13.7781 102.618 13.3106 103.106 12.999C103.62 12.6613 104.211 12.4925 104.88 12.4925C105.728 12.4925 106.345 12.7133 106.73 13.1548C107.141 13.5963 107.347 14.2066 107.347 14.9857C107.347 15.8428 107.154 16.466 106.769 16.8556C106.383 17.2452 105.946 17.44 105.458 17.44C104.995 17.44 104.584 17.3231 104.224 17.0893C103.89 16.8297 103.594 16.5829 103.337 16.3492C103.106 16.1155 102.9 15.9986 102.721 15.9986C102.309 15.9986 101.834 16.2843 101.294 16.8556C100.78 17.427 100.292 18.0633 99.8289 18.7645V27.3739C99.8289 28.179 99.9317 28.7893 100.137 29.2048C100.369 29.6204 100.754 29.906 101.294 30.0619C101.834 30.1918 102.566 30.2566 103.492 30.2566V31.5033ZM119.736 31.5033H110.213V30.2566C111.061 30.2566 111.678 30.1787 112.064 30.0229C112.449 29.8671 112.694 29.5815 112.796 29.1659C112.899 28.7504 112.951 28.179 112.951 27.4518V16.8946C112.951 16.0376 112.796 15.5181 112.488 15.3363C112.205 15.1286 111.768 15.0247 111.177 15.0247C110.92 15.0247 110.689 15.0377 110.483 15.0637C110.303 15.0896 110.213 15.1026 110.213 15.1026V13.817L115.38 12.7263H116.883V27.4128C116.883 28.166 116.934 28.7504 117.037 29.1659C117.166 29.5815 117.436 29.8671 117.847 30.0229C118.258 30.1787 118.888 30.2566 119.736 30.2566V31.5033ZM114.917 9.88243C114.197 9.88243 113.606 9.6487 113.143 9.18122C112.681 8.68777 112.449 8.09043 112.449 7.38922C112.449 6.688 112.668 6.10365 113.105 5.63617C113.568 5.1687 114.171 4.93496 114.917 4.93496C115.714 4.93496 116.331 5.1687 116.768 5.63617C117.204 6.10365 117.423 6.688 117.423 7.38922C117.423 8.09043 117.204 8.68777 116.768 9.18122C116.331 9.6487 115.714 9.88243 114.917 9.88243ZM132.915 31.737H130.602L124.819 17.3231C124.484 16.466 124.176 15.8298 123.893 15.4143C123.611 14.9987 123.289 14.713 122.93 14.5572C122.595 14.4014 122.146 14.3235 121.58 14.3235V13.0769H130.602V14.3235C129.831 14.3235 129.291 14.4144 128.983 14.5962C128.674 14.778 128.52 15.0247 128.52 15.3363C128.52 15.5961 128.558 15.8558 128.636 16.1155C128.713 16.3492 128.803 16.609 128.905 16.8946L132.028 24.9975L132.799 27.3739H133.031L133.879 24.9196L137.079 16.7387C137.105 16.6608 137.156 16.505 137.233 16.2713C137.31 16.0376 137.349 15.7519 137.349 15.4143C137.349 14.9728 137.156 14.6871 136.771 14.5572C136.411 14.4014 135.884 14.3235 135.19 14.3235V13.0769H142.13V14.3235C141.384 14.3235 140.806 14.5053 140.395 14.8689C139.983 15.2325 139.559 15.9337 139.122 16.9725L132.915 31.737ZM152.354 31.8928C150.71 31.8928 149.244 31.5293 147.959 30.802C146.7 30.0749 145.71 28.9971 144.991 27.5686C144.297 26.1144 143.95 24.3483 143.95 22.2706C143.95 20.089 144.335 18.2841 145.106 16.8556C145.877 15.4273 146.906 14.3624 148.191 13.6612C149.476 12.96 150.902 12.6094 152.47 12.6094C154.681 12.6094 156.454 13.3496 157.791 14.8299C159.127 16.3102 159.834 18.4528 159.911 21.2577H147.497L147.458 19.6994H155.554C155.529 18.6866 155.388 17.7646 155.13 16.9335C154.873 16.1025 154.475 15.4402 153.935 14.9468C153.421 14.4533 152.74 14.2066 151.892 14.2066C150.504 14.2066 149.476 14.778 148.808 15.9207C148.165 17.0634 147.844 18.7385 147.844 20.946C147.844 22.7121 148.101 24.1665 148.615 25.3092C149.129 26.426 149.823 27.257 150.697 27.8024C151.571 28.3218 152.547 28.5815 153.627 28.5815C154.655 28.5815 155.503 28.4517 156.171 28.192C156.865 27.9323 157.444 27.5817 157.906 27.1401C158.395 26.6987 158.844 26.2052 159.256 25.6598L160.065 26.2831C159.706 27.0104 159.307 27.7245 158.87 28.4257C158.433 29.101 157.919 29.6984 157.328 30.2177C156.763 30.7372 156.069 31.1526 155.246 31.4643C154.449 31.75 153.485 31.8928 152.354 31.8928ZM173.423 31.5033H163.785V30.2566C164.633 30.2566 165.25 30.1787 165.635 30.0229C166.021 29.8412 166.252 29.5425 166.329 29.1269C166.432 28.7114 166.483 28.153 166.483 27.4518V8.12939C166.483 7.32429 166.316 6.84383 165.982 6.688C165.674 6.53217 165.275 6.45426 164.787 6.45426C164.453 6.45426 164.17 6.46725 163.939 6.49322C163.708 6.51918 163.592 6.53217 163.592 6.53217V5.32452L168.951 4H170.416V27.4128C170.416 28.166 170.48 28.7504 170.609 29.1659C170.737 29.5554 171.007 29.8412 171.418 30.0229C171.83 30.1787 172.498 30.2566 173.423 30.2566V31.5033Z" fill="white"/>
</g>
<defs>
<clipPath id="clip0_120_13">
<rect width="100" height="28" fill="white" transform="translate(74 4)"/>
</clipPath>
</defs>
</svg>
